<mxfile host="app.diagrams.net" modified="2021-07-19T10:25:56.151Z" agent="5.0 (Windows NT 10.0; Win64; x64) AppleWebKit/537.36 (KHTML, like Gecko) Chrome/91.0.4472.124 Safari/537.36 Edg/91.0.864.67" etag="JvsCCMFDonTVzMeWQP1R" version="14.9.0" type="github">
  <diagram name="Page-1" id="13e1069c-82ec-6db2-03f1-153e76fe0fe0">
    <mxGraphModel dx="1117" dy="669" grid="1" gridSize="10" guides="1" tooltips="1" connect="1" arrows="1" fold="1" page="1" pageScale="1" pageWidth="1100" pageHeight="850" background="none" math="0" shadow="0">
      <root>
        <mxCell id="0" />
        <mxCell id="1" parent="0" />
        <mxCell id="7baba1c4bc27f4b0-2" value="H5原生端" style="shape=umlLifeline;perimeter=lifelinePerimeter;whiteSpace=wrap;html=1;container=1;collapsible=0;recursiveResize=0;outlineConnect=0;rounded=1;shadow=0;comic=0;labelBackgroundColor=none;strokeWidth=1;fontFamily=Verdana;fontSize=12;align=center;" parent="1" vertex="1">
          <mxGeometry x="243" y="36" width="100" height="794" as="geometry" />
        </mxCell>
        <mxCell id="7baba1c4bc27f4b0-10" value="" style="html=1;points=[];perimeter=orthogonalPerimeter;rounded=0;shadow=0;comic=0;labelBackgroundColor=none;strokeWidth=1;fontFamily=Verdana;fontSize=12;align=center;" parent="7baba1c4bc27f4b0-2" vertex="1">
          <mxGeometry x="45" y="100" width="10" height="670" as="geometry" />
        </mxCell>
        <mxCell id="7baba1c4bc27f4b0-3" value="FM" style="shape=umlLifeline;perimeter=lifelinePerimeter;whiteSpace=wrap;html=1;container=1;collapsible=0;recursiveResize=0;outlineConnect=0;rounded=1;shadow=0;comic=0;labelBackgroundColor=none;strokeWidth=1;fontFamily=Verdana;fontSize=12;align=center;" parent="1" vertex="1">
          <mxGeometry x="400" y="36" width="100" height="794" as="geometry" />
        </mxCell>
        <mxCell id="7baba1c4bc27f4b0-13" value="" style="html=1;points=[];perimeter=orthogonalPerimeter;rounded=0;shadow=0;comic=0;labelBackgroundColor=none;strokeWidth=1;fontFamily=Verdana;fontSize=12;align=center;" parent="7baba1c4bc27f4b0-3" vertex="1">
          <mxGeometry x="45" y="120" width="10" height="650" as="geometry" />
        </mxCell>
        <mxCell id="7baba1c4bc27f4b0-4" value="PS" style="shape=umlLifeline;perimeter=lifelinePerimeter;whiteSpace=wrap;html=1;container=1;collapsible=0;recursiveResize=0;outlineConnect=0;rounded=1;shadow=0;comic=0;labelBackgroundColor=none;strokeWidth=1;fontFamily=Verdana;fontSize=12;align=center;" parent="1" vertex="1">
          <mxGeometry x="540" y="36" width="100" height="794" as="geometry" />
        </mxCell>
        <mxCell id="7baba1c4bc27f4b0-5" value="redis/T2" style="shape=umlLifeline;perimeter=lifelinePerimeter;whiteSpace=wrap;html=1;container=1;collapsible=0;recursiveResize=0;outlineConnect=0;rounded=1;shadow=0;comic=0;labelBackgroundColor=none;strokeWidth=1;fontFamily=Verdana;fontSize=12;align=center;" parent="1" vertex="1">
          <mxGeometry x="680" y="36" width="100" height="794" as="geometry" />
        </mxCell>
        <mxCell id="7baba1c4bc27f4b0-8" value="用户" style="shape=umlLifeline;perimeter=lifelinePerimeter;whiteSpace=wrap;html=1;container=1;collapsible=0;recursiveResize=0;outlineConnect=0;rounded=1;shadow=0;comic=0;labelBackgroundColor=none;strokeWidth=1;fontFamily=Verdana;fontSize=12;align=center;" parent="1" vertex="1">
          <mxGeometry x="103" y="36" width="100" height="794" as="geometry" />
        </mxCell>
        <mxCell id="7baba1c4bc27f4b0-9" value="" style="html=1;points=[];perimeter=orthogonalPerimeter;rounded=0;shadow=0;comic=0;labelBackgroundColor=none;strokeWidth=1;fontFamily=Verdana;fontSize=12;align=center;" parent="7baba1c4bc27f4b0-8" vertex="1">
          <mxGeometry x="45" y="100" width="10" height="670" as="geometry" />
        </mxCell>
        <mxCell id="7baba1c4bc27f4b0-17" value="生成图形验证码，保存" style="html=1;verticalAlign=bottom;endArrow=block;labelBackgroundColor=none;fontFamily=Verdana;fontSize=12;edgeStyle=elbowEdgeStyle;elbow=vertical;entryX=0.014;entryY=0.442;entryDx=0;entryDy=0;entryPerimeter=0;" parent="1" source="7baba1c4bc27f4b0-13" target="7baba1c4bc27f4b0-19" edge="1">
          <mxGeometry relative="1" as="geometry">
            <mxPoint x="510" y="176" as="sourcePoint" />
            <Array as="points">
              <mxPoint x="460" y="176" />
            </Array>
            <mxPoint x="700" y="176" as="targetPoint" />
          </mxGeometry>
        </mxCell>
        <mxCell id="7baba1c4bc27f4b0-19" value="" style="html=1;points=[];perimeter=orthogonalPerimeter;rounded=0;shadow=0;comic=0;labelBackgroundColor=none;strokeWidth=1;fontFamily=Verdana;fontSize=12;align=center;" parent="1" vertex="1">
          <mxGeometry x="725" y="165" width="10" height="26" as="geometry" />
        </mxCell>
        <mxCell id="7baba1c4bc27f4b0-22" value="" style="html=1;points=[];perimeter=orthogonalPerimeter;rounded=0;shadow=0;comic=0;labelBackgroundColor=none;strokeWidth=1;fontFamily=Verdana;fontSize=12;align=center;" parent="1" vertex="1">
          <mxGeometry x="585" y="646" width="10" height="70" as="geometry" />
        </mxCell>
        <mxCell id="7baba1c4bc27f4b0-11" value="1.输入手机号&lt;br&gt;获取图形验证码" style="html=1;verticalAlign=bottom;endArrow=block;entryX=0;entryY=0;labelBackgroundColor=none;fontFamily=Verdana;fontSize=12;edgeStyle=elbowEdgeStyle;elbow=vertical;" parent="1" source="7baba1c4bc27f4b0-9" target="7baba1c4bc27f4b0-10" edge="1">
          <mxGeometry relative="1" as="geometry">
            <mxPoint x="223" y="146" as="sourcePoint" />
          </mxGeometry>
        </mxCell>
        <mxCell id="7baba1c4bc27f4b0-14" value="dispatch" style="html=1;verticalAlign=bottom;endArrow=block;entryX=0;entryY=0;labelBackgroundColor=none;fontFamily=Verdana;fontSize=12;edgeStyle=elbowEdgeStyle;elbow=vertical;" parent="1" source="7baba1c4bc27f4b0-10" target="7baba1c4bc27f4b0-13" edge="1">
          <mxGeometry relative="1" as="geometry">
            <mxPoint x="370" y="156" as="sourcePoint" />
          </mxGeometry>
        </mxCell>
        <mxCell id="FvlE8lT_X0aRaGXp_MVk-2" value="" style="endArrow=classic;html=1;exitX=-0.013;exitY=0.09;exitDx=0;exitDy=0;exitPerimeter=0;entryX=0.993;entryY=0.122;entryDx=0;entryDy=0;entryPerimeter=0;" edge="1" parent="1">
          <mxGeometry width="50" height="50" relative="1" as="geometry">
            <mxPoint x="444.8699999999999" y="197.60000000000002" as="sourcePoint" />
            <mxPoint x="297.92999999999995" y="198.53999999999996" as="targetPoint" />
          </mxGeometry>
        </mxCell>
        <mxCell id="FvlE8lT_X0aRaGXp_MVk-3" value="返回图形验证码" style="edgeLabel;html=1;align=center;verticalAlign=middle;resizable=0;points=[];" vertex="1" connectable="0" parent="FvlE8lT_X0aRaGXp_MVk-2">
          <mxGeometry x="-0.0974" relative="1" as="geometry">
            <mxPoint y="-12" as="offset" />
          </mxGeometry>
        </mxCell>
        <mxCell id="FvlE8lT_X0aRaGXp_MVk-4" value="" style="endArrow=classic;html=1;exitX=-0.144;exitY=0.142;exitDx=0;exitDy=0;exitPerimeter=0;entryX=1.011;entryY=0.142;entryDx=0;entryDy=0;entryPerimeter=0;" edge="1" parent="1" source="7baba1c4bc27f4b0-10" target="7baba1c4bc27f4b0-9">
          <mxGeometry width="50" height="50" relative="1" as="geometry">
            <mxPoint x="320" y="276" as="sourcePoint" />
            <mxPoint x="210" y="216" as="targetPoint" />
          </mxGeometry>
        </mxCell>
        <mxCell id="FvlE8lT_X0aRaGXp_MVk-5" value="return" style="edgeLabel;html=1;align=center;verticalAlign=middle;resizable=0;points=[];" vertex="1" connectable="0" parent="FvlE8lT_X0aRaGXp_MVk-4">
          <mxGeometry x="0.4758" y="-1" relative="1" as="geometry">
            <mxPoint x="28" y="-10" as="offset" />
          </mxGeometry>
        </mxCell>
        <mxCell id="FvlE8lT_X0aRaGXp_MVk-7" value="1.2填入图形验证码&lt;br&gt;请求手机验证码" style="html=1;verticalAlign=bottom;endArrow=block;entryX=0;entryY=0;labelBackgroundColor=none;fontFamily=Verdana;fontSize=12;edgeStyle=elbowEdgeStyle;elbow=vertical;" edge="1" parent="1">
          <mxGeometry relative="1" as="geometry">
            <mxPoint x="158" y="266.08000000000004" as="sourcePoint" />
            <mxPoint x="288" y="266.08000000000015" as="targetPoint" />
          </mxGeometry>
        </mxCell>
        <mxCell id="FvlE8lT_X0aRaGXp_MVk-8" value="dispatch" style="html=1;verticalAlign=bottom;endArrow=block;entryX=0;entryY=0;labelBackgroundColor=none;fontFamily=Verdana;fontSize=12;edgeStyle=elbowEdgeStyle;elbow=vertical;" edge="1" parent="1">
          <mxGeometry relative="1" as="geometry">
            <mxPoint x="298" y="286" as="sourcePoint" />
            <mxPoint x="445" y="286.00000000000296" as="targetPoint" />
          </mxGeometry>
        </mxCell>
        <mxCell id="FvlE8lT_X0aRaGXp_MVk-10" value="" style="html=1;points=[];perimeter=orthogonalPerimeter;rounded=0;shadow=0;comic=0;labelBackgroundColor=none;strokeWidth=1;fontFamily=Verdana;fontSize=12;align=center;" vertex="1" parent="1">
          <mxGeometry x="725" y="280" width="10" height="26" as="geometry" />
        </mxCell>
        <mxCell id="FvlE8lT_X0aRaGXp_MVk-11" value="验证图形验证码" style="html=1;verticalAlign=bottom;endArrow=block;labelBackgroundColor=none;fontFamily=Verdana;fontSize=12;edgeStyle=elbowEdgeStyle;elbow=vertical;entryX=0.014;entryY=0.442;entryDx=0;entryDy=0;entryPerimeter=0;" edge="1" parent="1">
          <mxGeometry relative="1" as="geometry">
            <mxPoint x="454.86" y="292.5" as="sourcePoint" />
            <Array as="points">
              <mxPoint x="459.86" y="292.5" />
            </Array>
            <mxPoint x="725.0000000000001" y="292.99199999999996" as="targetPoint" />
          </mxGeometry>
        </mxCell>
        <mxCell id="FvlE8lT_X0aRaGXp_MVk-14" value="" style="html=1;points=[];perimeter=orthogonalPerimeter;rounded=0;shadow=0;comic=0;labelBackgroundColor=none;strokeWidth=1;fontFamily=Verdana;fontSize=12;align=center;" vertex="1" parent="1">
          <mxGeometry x="450" y="280" width="10" height="60" as="geometry" />
        </mxCell>
        <mxCell id="FvlE8lT_X0aRaGXp_MVk-15" value="dispatch" style="html=1;verticalAlign=bottom;endArrow=block;labelBackgroundColor=none;fontFamily=Verdana;fontSize=12;elbow=vertical;edgeStyle=orthogonalEdgeStyle;curved=1;entryX=1.167;entryY=0.704;entryDx=0;entryDy=0;entryPerimeter=0;" edge="1" parent="1" target="FvlE8lT_X0aRaGXp_MVk-14">
          <mxGeometry x="0.0508" y="-10" relative="1" as="geometry">
            <mxPoint x="460" y="293" as="sourcePoint" />
            <mxPoint x="480" y="323" as="targetPoint" />
            <Array as="points">
              <mxPoint x="510" y="293" />
              <mxPoint x="510" y="322" />
            </Array>
            <mxPoint as="offset" />
          </mxGeometry>
        </mxCell>
        <mxCell id="FvlE8lT_X0aRaGXp_MVk-16" value="" style="endArrow=classic;html=1;exitX=-0.013;exitY=0.09;exitDx=0;exitDy=0;exitPerimeter=0;entryX=0.993;entryY=0.122;entryDx=0;entryDy=0;entryPerimeter=0;" edge="1" parent="1">
          <mxGeometry width="50" height="50" relative="1" as="geometry">
            <mxPoint x="443.9399999999999" y="333" as="sourcePoint" />
            <mxPoint x="296.99999999999994" y="333.93999999999994" as="targetPoint" />
          </mxGeometry>
        </mxCell>
        <mxCell id="FvlE8lT_X0aRaGXp_MVk-17" value="返回手机验证码" style="edgeLabel;html=1;align=center;verticalAlign=middle;resizable=0;points=[];" vertex="1" connectable="0" parent="FvlE8lT_X0aRaGXp_MVk-16">
          <mxGeometry x="-0.0974" relative="1" as="geometry">
            <mxPoint y="-12" as="offset" />
          </mxGeometry>
        </mxCell>
        <mxCell id="FvlE8lT_X0aRaGXp_MVk-18" value="" style="html=1;points=[];perimeter=orthogonalPerimeter;rounded=0;shadow=0;comic=0;labelBackgroundColor=none;strokeWidth=1;fontFamily=Verdana;fontSize=12;align=center;" vertex="1" parent="1">
          <mxGeometry x="725" y="314" width="10" height="26" as="geometry" />
        </mxCell>
        <mxCell id="FvlE8lT_X0aRaGXp_MVk-20" value="存入手机验证码" style="html=1;verticalAlign=bottom;endArrow=block;labelBackgroundColor=none;fontFamily=Verdana;fontSize=12;edgeStyle=elbowEdgeStyle;elbow=vertical;entryX=0.014;entryY=0.328;entryDx=0;entryDy=0;entryPerimeter=0;" edge="1" parent="1" target="FvlE8lT_X0aRaGXp_MVk-18">
          <mxGeometry relative="1" as="geometry">
            <mxPoint x="460.0000000000001" y="322.58" as="sourcePoint" />
            <Array as="points">
              <mxPoint x="730" y="323" />
            </Array>
            <mxPoint x="720" y="323" as="targetPoint" />
          </mxGeometry>
        </mxCell>
        <mxCell id="FvlE8lT_X0aRaGXp_MVk-23" value="" style="endArrow=classic;html=1;exitX=-0.144;exitY=0.142;exitDx=0;exitDy=0;exitPerimeter=0;entryX=1.011;entryY=0.142;entryDx=0;entryDy=0;entryPerimeter=0;" edge="1" parent="1">
          <mxGeometry width="50" height="50" relative="1" as="geometry">
            <mxPoint x="288.44999999999993" y="345.00000000000006" as="sourcePoint" />
            <mxPoint x="160" y="345.00000000000006" as="targetPoint" />
          </mxGeometry>
        </mxCell>
        <mxCell id="FvlE8lT_X0aRaGXp_MVk-24" value="return" style="edgeLabel;html=1;align=center;verticalAlign=middle;resizable=0;points=[];" vertex="1" connectable="0" parent="FvlE8lT_X0aRaGXp_MVk-23">
          <mxGeometry x="0.4758" y="-1" relative="1" as="geometry">
            <mxPoint x="28" y="-10" as="offset" />
          </mxGeometry>
        </mxCell>
        <mxCell id="FvlE8lT_X0aRaGXp_MVk-25" value="1.3填入手机验证码" style="html=1;verticalAlign=bottom;endArrow=block;labelBackgroundColor=none;fontFamily=Verdana;fontSize=12;edgeStyle=elbowEdgeStyle;elbow=vertical;entryX=-0.222;entryY=0.444;entryDx=0;entryDy=0;entryPerimeter=0;" edge="1" parent="1" target="7baba1c4bc27f4b0-10">
          <mxGeometry relative="1" as="geometry">
            <mxPoint x="160" y="389.58000000000004" as="sourcePoint" />
            <mxPoint x="280" y="390" as="targetPoint" />
          </mxGeometry>
        </mxCell>
        <mxCell id="FvlE8lT_X0aRaGXp_MVk-26" value="dispatch" style="html=1;verticalAlign=bottom;endArrow=block;entryX=0;entryY=0;labelBackgroundColor=none;fontFamily=Verdana;fontSize=12;edgeStyle=elbowEdgeStyle;elbow=vertical;" edge="1" parent="1">
          <mxGeometry relative="1" as="geometry">
            <mxPoint x="299" y="412" as="sourcePoint" />
            <mxPoint x="446" y="412.00000000000296" as="targetPoint" />
          </mxGeometry>
        </mxCell>
        <mxCell id="FvlE8lT_X0aRaGXp_MVk-27" value="" style="html=1;points=[];perimeter=orthogonalPerimeter;rounded=0;shadow=0;comic=0;labelBackgroundColor=none;strokeWidth=1;fontFamily=Verdana;fontSize=12;align=center;" vertex="1" parent="1">
          <mxGeometry x="725" y="416" width="10" height="26" as="geometry" />
        </mxCell>
        <mxCell id="FvlE8lT_X0aRaGXp_MVk-28" value="验证手机验证码" style="html=1;verticalAlign=bottom;endArrow=block;labelBackgroundColor=none;fontFamily=Verdana;fontSize=12;edgeStyle=elbowEdgeStyle;elbow=vertical;entryX=0.014;entryY=0.328;entryDx=0;entryDy=0;entryPerimeter=0;" edge="1" parent="1">
          <mxGeometry relative="1" as="geometry">
            <mxPoint x="458" y="426.63999999999993" as="sourcePoint" />
            <Array as="points">
              <mxPoint x="728" y="427.06" />
            </Array>
            <mxPoint x="723.1399999999999" y="426.588" as="targetPoint" />
          </mxGeometry>
        </mxCell>
        <mxCell id="FvlE8lT_X0aRaGXp_MVk-29" value="" style="endArrow=classic;html=1;exitX=-0.013;exitY=0.09;exitDx=0;exitDy=0;exitPerimeter=0;entryX=0.993;entryY=0.122;entryDx=0;entryDy=0;entryPerimeter=0;" edge="1" parent="1">
          <mxGeometry width="50" height="50" relative="1" as="geometry">
            <mxPoint x="445.9399999999998" y="446" as="sourcePoint" />
            <mxPoint x="299" y="446.93999999999994" as="targetPoint" />
          </mxGeometry>
        </mxCell>
        <mxCell id="FvlE8lT_X0aRaGXp_MVk-30" value="返回手机号绑定结果" style="edgeLabel;html=1;align=center;verticalAlign=middle;resizable=0;points=[];" vertex="1" connectable="0" parent="FvlE8lT_X0aRaGXp_MVk-29">
          <mxGeometry x="-0.0974" relative="1" as="geometry">
            <mxPoint y="-12" as="offset" />
          </mxGeometry>
        </mxCell>
        <mxCell id="FvlE8lT_X0aRaGXp_MVk-31" value="" style="endArrow=classic;html=1;exitX=-0.144;exitY=0.142;exitDx=0;exitDy=0;exitPerimeter=0;entryX=1.011;entryY=0.142;entryDx=0;entryDy=0;entryPerimeter=0;" edge="1" parent="1">
          <mxGeometry width="50" height="50" relative="1" as="geometry">
            <mxPoint x="288.45000000000005" y="466" as="sourcePoint" />
            <mxPoint x="160" y="466" as="targetPoint" />
          </mxGeometry>
        </mxCell>
        <mxCell id="FvlE8lT_X0aRaGXp_MVk-32" value="return" style="edgeLabel;html=1;align=center;verticalAlign=middle;resizable=0;points=[];" vertex="1" connectable="0" parent="FvlE8lT_X0aRaGXp_MVk-31">
          <mxGeometry x="0.4758" y="-1" relative="1" as="geometry">
            <mxPoint x="28" y="-10" as="offset" />
          </mxGeometry>
        </mxCell>
        <mxCell id="FvlE8lT_X0aRaGXp_MVk-33" value="2.录入资金账号&lt;br&gt;获取图形验证码" style="html=1;verticalAlign=bottom;endArrow=block;labelBackgroundColor=none;fontFamily=Verdana;fontSize=12;edgeStyle=elbowEdgeStyle;elbow=vertical;entryX=-0.222;entryY=0.444;entryDx=0;entryDy=0;entryPerimeter=0;" edge="1" parent="1">
          <mxGeometry relative="1" as="geometry">
            <mxPoint x="160" y="516.5" as="sourcePoint" />
            <mxPoint x="285.7800000000001" y="516" as="targetPoint" />
          </mxGeometry>
        </mxCell>
        <mxCell id="FvlE8lT_X0aRaGXp_MVk-34" value="dispatch" style="html=1;verticalAlign=bottom;endArrow=block;entryX=0;entryY=0;labelBackgroundColor=none;fontFamily=Verdana;fontSize=12;edgeStyle=elbowEdgeStyle;elbow=vertical;" edge="1" parent="1">
          <mxGeometry relative="1" as="geometry">
            <mxPoint x="299.0000000000001" y="535.17" as="sourcePoint" />
            <mxPoint x="446" y="535.1700000000029" as="targetPoint" />
          </mxGeometry>
        </mxCell>
        <mxCell id="FvlE8lT_X0aRaGXp_MVk-35" value="" style="html=1;points=[];perimeter=orthogonalPerimeter;rounded=0;shadow=0;comic=0;labelBackgroundColor=none;strokeWidth=1;fontFamily=Verdana;fontSize=12;align=center;" vertex="1" parent="1">
          <mxGeometry x="725" y="546" width="10" height="26" as="geometry" />
        </mxCell>
        <mxCell id="FvlE8lT_X0aRaGXp_MVk-36" value="存入图形验证码" style="html=1;verticalAlign=bottom;endArrow=block;labelBackgroundColor=none;fontFamily=Verdana;fontSize=12;edgeStyle=elbowEdgeStyle;elbow=vertical;entryX=0.014;entryY=0.328;entryDx=0;entryDy=0;entryPerimeter=0;" edge="1" parent="1">
          <mxGeometry relative="1" as="geometry">
            <mxPoint x="458.86" y="556.0499999999998" as="sourcePoint" />
            <Array as="points">
              <mxPoint x="728.86" y="556.47" />
            </Array>
            <mxPoint x="723.9999999999999" y="555.998" as="targetPoint" />
          </mxGeometry>
        </mxCell>
        <mxCell id="FvlE8lT_X0aRaGXp_MVk-37" value="" style="endArrow=classic;html=1;exitX=-0.013;exitY=0.09;exitDx=0;exitDy=0;exitPerimeter=0;entryX=0.993;entryY=0.122;entryDx=0;entryDy=0;entryPerimeter=0;" edge="1" parent="1">
          <mxGeometry width="50" height="50" relative="1" as="geometry">
            <mxPoint x="444.9399999999999" y="572" as="sourcePoint" />
            <mxPoint x="297.99999999999994" y="572.9399999999999" as="targetPoint" />
          </mxGeometry>
        </mxCell>
        <mxCell id="FvlE8lT_X0aRaGXp_MVk-38" value="返回图形验证码" style="edgeLabel;html=1;align=center;verticalAlign=middle;resizable=0;points=[];" vertex="1" connectable="0" parent="FvlE8lT_X0aRaGXp_MVk-37">
          <mxGeometry x="-0.0974" relative="1" as="geometry">
            <mxPoint y="-12" as="offset" />
          </mxGeometry>
        </mxCell>
        <mxCell id="FvlE8lT_X0aRaGXp_MVk-39" value="" style="endArrow=classic;html=1;exitX=-0.144;exitY=0.142;exitDx=0;exitDy=0;exitPerimeter=0;entryX=1.011;entryY=0.142;entryDx=0;entryDy=0;entryPerimeter=0;" edge="1" parent="1">
          <mxGeometry width="50" height="50" relative="1" as="geometry">
            <mxPoint x="288.45000000000005" y="586" as="sourcePoint" />
            <mxPoint x="160" y="586" as="targetPoint" />
          </mxGeometry>
        </mxCell>
        <mxCell id="FvlE8lT_X0aRaGXp_MVk-40" value="return" style="edgeLabel;html=1;align=center;verticalAlign=middle;resizable=0;points=[];" vertex="1" connectable="0" parent="FvlE8lT_X0aRaGXp_MVk-39">
          <mxGeometry x="0.4758" y="-1" relative="1" as="geometry">
            <mxPoint x="28" y="-10" as="offset" />
          </mxGeometry>
        </mxCell>
        <mxCell id="FvlE8lT_X0aRaGXp_MVk-41" value="2.2填入图形验证码&lt;br&gt;账户密码，登录" style="html=1;verticalAlign=bottom;endArrow=block;labelBackgroundColor=none;fontFamily=Verdana;fontSize=12;edgeStyle=elbowEdgeStyle;elbow=vertical;entryX=-0.222;entryY=0.444;entryDx=0;entryDy=0;entryPerimeter=0;" edge="1" parent="1">
          <mxGeometry relative="1" as="geometry">
            <mxPoint x="160" y="636.5" as="sourcePoint" />
            <mxPoint x="285.7800000000001" y="636" as="targetPoint" />
          </mxGeometry>
        </mxCell>
        <mxCell id="FvlE8lT_X0aRaGXp_MVk-43" value="密码RSA加密" style="html=1;verticalAlign=bottom;endArrow=block;entryX=0;entryY=0;labelBackgroundColor=none;fontFamily=Verdana;fontSize=12;edgeStyle=elbowEdgeStyle;elbow=vertical;" edge="1" parent="1">
          <mxGeometry relative="1" as="geometry">
            <mxPoint x="298.0000000000001" y="653.5899999999999" as="sourcePoint" />
            <mxPoint x="445" y="653.590000000003" as="targetPoint" />
          </mxGeometry>
        </mxCell>
        <mxCell id="FvlE8lT_X0aRaGXp_MVk-45" value="密码RSA解密" style="html=1;verticalAlign=bottom;endArrow=block;entryX=0;entryY=0;labelBackgroundColor=none;fontFamily=Verdana;fontSize=12;edgeStyle=elbowEdgeStyle;elbow=vertical;" edge="1" parent="1">
          <mxGeometry relative="1" as="geometry">
            <mxPoint x="456" y="664" as="sourcePoint" />
            <mxPoint x="585" y="663.5900000000029" as="targetPoint" />
          </mxGeometry>
        </mxCell>
        <mxCell id="FvlE8lT_X0aRaGXp_MVk-46" value="" style="html=1;points=[];perimeter=orthogonalPerimeter;rounded=0;shadow=0;comic=0;labelBackgroundColor=none;strokeWidth=1;fontFamily=Verdana;fontSize=12;align=center;" vertex="1" parent="1">
          <mxGeometry x="725" y="664.5" width="10" height="21.5" as="geometry" />
        </mxCell>
        <mxCell id="FvlE8lT_X0aRaGXp_MVk-48" value="T2验证账号密码" style="html=1;verticalAlign=bottom;endArrow=block;entryX=0;entryY=0;labelBackgroundColor=none;fontFamily=Verdana;fontSize=12;edgeStyle=elbowEdgeStyle;elbow=vertical;exitX=1.03;exitY=0.906;exitDx=0;exitDy=0;exitPerimeter=0;" edge="1" parent="1">
          <mxGeometry relative="1" as="geometry">
            <mxPoint x="595" y="673.3599999999999" as="sourcePoint" />
            <mxPoint x="724.7" y="673.5900000000029" as="targetPoint" />
          </mxGeometry>
        </mxCell>
        <mxCell id="FvlE8lT_X0aRaGXp_MVk-49" value="生成token" style="html=1;verticalAlign=bottom;endArrow=block;labelBackgroundColor=none;fontFamily=Verdana;fontSize=12;elbow=vertical;edgeStyle=orthogonalEdgeStyle;curved=1;" edge="1" parent="1">
          <mxGeometry x="0.1398" relative="1" as="geometry">
            <mxPoint x="456" y="696" as="sourcePoint" />
            <mxPoint x="458" y="738.74" as="targetPoint" />
            <Array as="points">
              <mxPoint x="506" y="695.74" />
              <mxPoint x="506" y="738.74" />
            </Array>
            <mxPoint as="offset" />
          </mxGeometry>
        </mxCell>
        <mxCell id="FvlE8lT_X0aRaGXp_MVk-52" value="" style="endArrow=classic;html=1;entryX=0.893;entryY=0.932;entryDx=0;entryDy=0;entryPerimeter=0;exitX=-0.093;exitY=0.723;exitDx=0;exitDy=0;exitPerimeter=0;" edge="1" parent="1">
          <mxGeometry width="50" height="50" relative="1" as="geometry">
            <mxPoint x="584.0699999999999" y="696.53" as="sourcePoint" />
            <mxPoint x="453.93000000000006" y="695.52" as="targetPoint" />
            <Array as="points">
              <mxPoint x="550" y="696" />
            </Array>
          </mxGeometry>
        </mxCell>
        <mxCell id="FvlE8lT_X0aRaGXp_MVk-53" value="return" style="edgeLabel;html=1;align=center;verticalAlign=middle;resizable=0;points=[];" vertex="1" connectable="0" parent="FvlE8lT_X0aRaGXp_MVk-52">
          <mxGeometry x="-0.5842" y="1" relative="1" as="geometry">
            <mxPoint x="-27" y="-10" as="offset" />
          </mxGeometry>
        </mxCell>
        <mxCell id="FvlE8lT_X0aRaGXp_MVk-56" value="存入加密token" style="html=1;verticalAlign=bottom;endArrow=block;labelBackgroundColor=none;fontFamily=Verdana;fontSize=12;edgeStyle=elbowEdgeStyle;elbow=vertical;entryX=0.014;entryY=0.328;entryDx=0;entryDy=0;entryPerimeter=0;" edge="1" parent="1">
          <mxGeometry relative="1" as="geometry">
            <mxPoint x="457.43" y="746.05" as="sourcePoint" />
            <Array as="points">
              <mxPoint x="727.43" y="746.47" />
            </Array>
            <mxPoint x="722.5699999999998" y="745.998" as="targetPoint" />
          </mxGeometry>
        </mxCell>
        <mxCell id="FvlE8lT_X0aRaGXp_MVk-57" value="" style="html=1;points=[];perimeter=orthogonalPerimeter;rounded=0;shadow=0;comic=0;labelBackgroundColor=none;strokeWidth=1;fontFamily=Verdana;fontSize=12;align=center;" vertex="1" parent="1">
          <mxGeometry x="725" y="736" width="10" height="21.5" as="geometry" />
        </mxCell>
        <mxCell id="FvlE8lT_X0aRaGXp_MVk-59" value="" style="endArrow=classic;html=1;exitX=-0.013;exitY=0.09;exitDx=0;exitDy=0;exitPerimeter=0;entryX=0.993;entryY=0.122;entryDx=0;entryDy=0;entryPerimeter=0;" edge="1" parent="1">
          <mxGeometry width="50" height="50" relative="1" as="geometry">
            <mxPoint x="445.9399999999998" y="760.0000000000001" as="sourcePoint" />
            <mxPoint x="299" y="760.94" as="targetPoint" />
          </mxGeometry>
        </mxCell>
        <mxCell id="FvlE8lT_X0aRaGXp_MVk-60" value="返回加密token" style="edgeLabel;html=1;align=center;verticalAlign=middle;resizable=0;points=[];" vertex="1" connectable="0" parent="FvlE8lT_X0aRaGXp_MVk-59">
          <mxGeometry x="-0.0974" relative="1" as="geometry">
            <mxPoint y="-12" as="offset" />
          </mxGeometry>
        </mxCell>
        <mxCell id="FvlE8lT_X0aRaGXp_MVk-61" value="" style="endArrow=classic;html=1;exitX=-0.144;exitY=0.142;exitDx=0;exitDy=0;exitPerimeter=0;entryX=1.011;entryY=0.142;entryDx=0;entryDy=0;entryPerimeter=0;" edge="1" parent="1">
          <mxGeometry width="50" height="50" relative="1" as="geometry">
            <mxPoint x="288.45000000000005" y="779.0000000000001" as="sourcePoint" />
            <mxPoint x="160" y="779.0000000000001" as="targetPoint" />
          </mxGeometry>
        </mxCell>
        <mxCell id="FvlE8lT_X0aRaGXp_MVk-62" value="return" style="edgeLabel;html=1;align=center;verticalAlign=middle;resizable=0;points=[];" vertex="1" connectable="0" parent="FvlE8lT_X0aRaGXp_MVk-61">
          <mxGeometry x="0.4758" y="-1" relative="1" as="geometry">
            <mxPoint x="28" y="-10" as="offset" />
          </mxGeometry>
        </mxCell>
      </root>
    </mxGraphModel>
  </diagram>
</mxfile>
